<svg xmlns="http://www.w3.org/2000/svg" xmlns:xlink="http://www.w3.org/1999/xlink" width="1080" zoomAndPan="magnify" viewBox="0 0 810 809.999993" height="1080" preserveAspectRatio="xMidYMid meet" version="1.0"><defs><filter x="0%" y="0%" width="100%" height="100%" id="3a41a3f90d"><feColorMatrix values="0 0 0 0 1 0 0 0 0 1 0 0 0 0 1 0 0 0 1 0" color-interpolation-filters="sRGB"/></filter><clipPath id="28ef7d78f7"><path d="M 379 307 L 609.882812 307 L 609.882812 538 L 379 538 Z M 379 307 " clip-rule="nonzero"/></clipPath><clipPath id="bad1ae5fe7"><path d="M 202 275 L 409 275 L 409 538.917969 L 202 538.917969 Z M 202 275 " clip-rule="nonzero"/></clipPath><mask id="8c7605be31"><g filter="url(#3a41a3f90d)"><rect x="-81" width="972" fill="#000000" y="-80.999999" height="971.999992" fill-opacity="0.23"/></g></mask><clipPath id="d307cf96bd"><path d="M 0.929688 0.480469 L 396.929688 0.480469 L 396.929688 396.480469 L 0.929688 396.480469 Z M 0.929688 0.480469 " clip-rule="nonzero"/></clipPath><clipPath id="bc99bf50ae"><rect x="0" width="398" y="0" height="398"/></clipPath></defs><g clip-path="url(#28ef7d78f7)"><path fill="#ffffff" d="M 609.5 419.074219 L 609.5 312.972656 C 609.5 309.824219 606.945312 307.273438 603.796875 307.273438 L 497.699219 307.273438 C 495.96875 307.273438 494.335938 308.054688 493.253906 309.402344 C 492.171875 310.75 491.757812 312.515625 492.128906 314.199219 C 494.53125 325.085938 495.90625 334.046875 495.90625 338.78125 C 495.90625 341.996094 495.90625 349.527344 493.335938 351.238281 C 493.085938 351.40625 492.65625 351.628906 491.828125 351.628906 C 490.835938 351.628906 489.554688 351.3125 488.125 350.71875 C 483.601562 348.835938 477.71875 346.675781 472.28125 346.675781 C 469.089844 346.675781 466.335938 347.433594 464.097656 348.925781 C 459.585938 351.925781 457.296875 357.796875 457.296875 366.363281 C 457.296875 374.929688 459.585938 380.796875 464.101562 383.808594 C 466.335938 385.296875 469.085938 386.054688 472.28125 386.054688 C 477.714844 386.054688 483.601562 383.894531 488.121094 382.011719 C 489.554688 381.414062 490.835938 381.101562 491.828125 381.101562 C 492.65625 381.101562 493.085938 381.320312 493.335938 381.488281 C 495.90625 383.203125 495.90625 390.730469 495.90625 393.945312 C 495.90625 398.515625 494.597656 407.164062 492.316406 417.671875 C 492.226562 418.09375 492.359375 418.503906 492.363281 418.921875 C 486.238281 417.554688 473.203125 414.84375 465.820312 414.84375 C 460.175781 414.84375 446.953125 414.84375 446.953125 424.964844 C 446.953125 426.773438 447.402344 428.730469 448.328125 430.957031 C 450 434.96875 451.917969 440.121094 451.917969 444.476562 C 451.917969 448.171875 450.523438 449.78125 449.476562 450.667969 C 447.289062 452.519531 443.511719 453.457031 438.238281 453.457031 C 424.554688 453.457031 424.554688 447.164062 424.554688 444.476562 C 424.554688 440.121094 426.472656 434.964844 428.144531 430.960938 C 429.070312 428.730469 429.519531 426.773438 429.519531 424.964844 C 429.519531 414.84375 416.304688 414.84375 410.660156 414.84375 C 403.378906 414.84375 390.582031 417.464844 383.601562 419.027344 C 380.996094 419.609375 379.144531 421.921875 379.144531 424.59375 L 379.144531 531.925781 C 379.144531 535.074219 381.699219 537.625 384.847656 537.625 L 492.179688 537.625 C 493.15625 537.625 493.972656 537.152344 494.785156 536.710938 C 495.667969 537.25 496.636719 537.625 497.695312 537.625 L 603.800781 537.625 C 606.949219 537.625 609.5 535.074219 609.5 531.925781 L 609.5 424.59375 C 609.5 423.621094 609.027344 422.800781 608.585938 421.984375 C 609.121094 421.101562 609.5 420.132812 609.5 419.074219 Z M 491.828125 375.398438 C 490.058594 375.398438 488.089844 375.847656 485.929688 376.75 C 481.867188 378.441406 476.621094 380.351562 472.28125 380.351562 C 470.375 380.351562 468.644531 379.984375 467.265625 379.0625 C 464.429688 377.175781 462.996094 372.902344 462.996094 366.363281 C 462.996094 359.824219 464.429688 355.554688 467.265625 353.667969 C 468.644531 352.746094 470.375 352.378906 472.28125 352.378906 C 476.621094 352.378906 481.867188 354.289062 485.929688 355.980469 C 488.089844 356.878906 490.058594 357.332031 491.828125 357.332031 C 493.589844 357.332031 495.152344 356.882812 496.5 355.984375 C 501.214844 352.84375 501.609375 345.457031 501.609375 338.78125 C 501.609375 331.628906 499.023438 318.976562 497.699219 312.972656 L 603.796875 312.972656 L 603.796875 418.765625 C 596.652344 417.1875 584.933594 414.84375 577.988281 414.84375 C 572.34375 414.84375 559.121094 414.84375 559.121094 424.964844 C 559.121094 426.773438 559.570312 428.730469 560.496094 430.957031 C 562.171875 434.96875 564.089844 440.125 564.089844 444.476562 C 564.089844 448.175781 562.695312 449.78125 561.644531 450.671875 C 559.460938 452.519531 555.679688 453.457031 550.40625 453.457031 C 536.726562 453.457031 536.726562 447.164062 536.726562 444.476562 C 536.726562 440.121094 538.640625 434.964844 540.3125 430.960938 C 541.238281 428.730469 541.691406 426.773438 541.691406 424.964844 C 541.691406 414.84375 528.46875 414.84375 522.824219 414.84375 C 516.175781 414.84375 505.003906 417.03125 497.957031 418.558594 C 499.328125 412.207031 501.609375 400.667969 501.609375 393.945312 C 501.609375 387.269531 501.214844 379.886719 496.5 376.746094 C 495.152344 375.847656 493.589844 375.398438 491.828125 375.398438 Z M 384.847656 424.589844 C 390.023438 423.433594 403.613281 420.546875 410.660156 420.546875 C 420.007812 420.546875 423.820312 421.828125 423.820312 424.964844 C 423.820312 425.992188 423.503906 427.269531 422.882812 428.765625 C 421.007812 433.261719 418.855469 439.113281 418.855469 444.476562 C 418.855469 451.175781 422.21875 459.160156 438.238281 459.160156 C 444.988281 459.160156 449.871094 457.804688 453.160156 455.019531 C 456.121094 452.515625 457.621094 448.96875 457.621094 444.476562 C 457.621094 439.105469 455.46875 433.261719 453.589844 428.765625 C 452.96875 427.269531 452.652344 425.992188 452.652344 424.964844 C 452.652344 421.828125 456.46875 420.546875 465.820312 420.546875 C 473.027344 420.546875 487.070312 423.566406 491.957031 424.667969 C 491.972656 425.019531 491.90625 425.367188 491.984375 425.714844 C 494.441406 436.730469 495.90625 446.164062 495.90625 450.949219 C 495.90625 454.164062 495.90625 461.691406 493.335938 463.40625 C 493.085938 463.574219 492.65625 463.796875 491.828125 463.796875 C 490.839844 463.796875 489.5625 463.480469 488.132812 462.882812 C 483.601562 461 477.714844 458.84375 472.28125 458.84375 C 469.085938 458.84375 466.332031 459.597656 464.09375 461.089844 C 459.582031 464.105469 457.292969 469.972656 457.292969 478.53125 C 457.292969 487.097656 459.582031 492.964844 464.097656 495.972656 C 466.332031 497.464844 469.085938 498.222656 472.285156 498.222656 C 477.722656 498.222656 483.605469 496.0625 488.125 494.179688 C 489.558594 493.582031 490.835938 493.269531 491.828125 493.269531 C 492.65625 493.269531 493.085938 493.492188 493.339844 493.65625 C 495.90625 495.371094 495.90625 502.898438 495.90625 506.113281 C 495.90625 512.839844 493.265625 525.546875 492.128906 530.695312 C 492.039062 531.105469 492.136719 531.511719 492.136719 531.921875 L 384.847656 531.921875 Z M 498.011719 531.925781 C 499.585938 524.765625 501.925781 513.023438 501.925781 506.113281 C 501.925781 498.859375 501.289062 491.722656 496.671875 488.648438 C 495.285156 487.722656 493.644531 487.25 491.796875 487.25 C 490.015625 487.25 488 487.714844 485.808594 488.625 C 482.125 490.160156 476.707031 492.203125 472.265625 492.203125 C 470.261719 492.203125 468.679688 491.796875 467.433594 490.96875 C 464.027344 488.695312 463.3125 482.949219 463.3125 478.53125 C 463.3125 474.113281 464.027344 468.371094 467.433594 466.101562 C 468.683594 465.265625 470.261719 464.863281 472.269531 464.863281 C 476.710938 464.863281 482.125 466.90625 485.8125 468.4375 C 488.035156 469.363281 489.992188 469.8125 491.800781 469.8125 C 493.644531 469.8125 495.285156 469.339844 496.679688 468.410156 C 501.289062 465.339844 501.925781 458.203125 501.925781 450.949219 C 501.925781 443.652344 499.265625 430.777344 497.886719 424.585938 C 498.292969 424.585938 498.695312 424.542969 499.097656 424.453125 C 509.609375 422.171875 518.257812 420.863281 522.824219 420.863281 C 534.113281 420.863281 535.671875 422.832031 535.671875 424.960938 C 535.671875 425.949219 535.363281 427.1875 534.757812 428.640625 C 532.871094 433.167969 530.707031 439.050781 530.707031 444.476562 C 530.707031 451.320312 534.125 459.476562 550.40625 459.476562 C 566.6875 459.476562 570.105469 451.320312 570.105469 444.476562 C 570.105469 438.988281 567.789062 432.808594 566.050781 428.640625 C 565.445312 427.1875 565.136719 425.949219 565.136719 424.964844 C 565.136719 422.835938 566.695312 420.863281 577.988281 420.863281 C 582.71875 420.863281 591.675781 422.242188 602.570312 424.640625 C 602.976562 424.730469 603.390625 424.773438 603.796875 424.773438 C 603.796875 424.773438 603.796875 424.773438 603.800781 424.773438 L 603.800781 531.925781 Z M 498.011719 531.925781 " fill-opacity="1" fill-rule="nonzero"/></g><path fill="#ffffff" d="M 390.097656 354.777344 C 391.742188 354.777344 392.285156 355.292969 392.8125 356.371094 C 393.253906 357.257812 393.519531 358.503906 393.617188 360.078125 C 393.921875 364.972656 394.578125 371.210938 396.96875 376.074219 C 400.261719 382.773438 405.527344 384.179688 409.363281 384.179688 C 412.808594 384.179688 416.703125 383.089844 421.261719 380.847656 C 427.390625 377.835938 431.222656 374.414062 432.980469 370.394531 C 434.566406 366.75 434.347656 362.816406 432.324219 358.699219 C 429.902344 353.769531 425.101562 349.246094 421.699219 346.273438 C 420.519531 345.234375 419.695312 344.261719 419.261719 343.378906 C 418.320312 341.464844 418.851562 339.011719 428.984375 334.03125 C 433.28125 331.917969 442.394531 329.074219 453.363281 326.417969 C 454.835938 326.0625 456.105469 325.136719 456.890625 323.847656 C 457.679688 322.554688 457.921875 321 457.566406 319.53125 C 455.914062 312.734375 452.675781 300.375 449.515625 293.945312 C 446.3125 287.429688 442.59375 281.3125 437.101562 280.585938 C 436.855469 280.554688 436.308594 280.519531 436.058594 280.519531 C 433.078125 280.519531 430.140625 282.148438 427.332031 285.367188 C 423.480469 289.761719 417.765625 295.617188 412.71875 295.617188 C 412.445312 295.617188 412.164062 295.597656 411.886719 295.5625 C 411.429688 295.5 411.023438 295.214844 410.585938 295.050781 C 409.710938 296.867188 408.515625 298.457031 406.957031 299.78125 C 408.296875 300.503906 409.683594 301.023438 411.140625 301.214844 C 411.667969 301.285156 412.195312 301.316406 412.71875 301.316406 C 419.960938 301.316406 426.578125 294.878906 431.628906 289.117188 C 432.804688 287.769531 434.5 286.222656 436.058594 286.222656 C 436.160156 286.222656 436.257812 286.226562 436.355469 286.242188 C 439.585938 286.667969 443.082031 293.78125 444.398438 296.460938 C 447.40625 302.582031 450.6875 315.378906 452.023438 320.875 C 446.363281 322.246094 433.132812 325.636719 426.472656 328.910156 C 421.066406 331.566406 409.820312 337.09375 414.144531 345.890625 C 414.921875 347.476562 416.167969 349.007812 417.949219 350.566406 C 420.984375 353.21875 425.242188 357.210938 427.207031 361.214844 C 428.476562 363.792969 428.652344 366.046875 427.753906 368.113281 C 426.578125 370.808594 423.546875 373.371094 418.746094 375.730469 C 414.734375 377.703125 411.695312 378.476562 409.363281 378.476562 C 405.226562 378.476562 403.304688 376.042969 402.085938 373.558594 C 400.140625 369.601562 399.578125 364.089844 399.308594 359.726562 C 399.164062 357.363281 398.710938 355.441406 397.933594 353.859375 C 396.175781 350.285156 393.28125 349.074219 390.097656 349.074219 C 385.441406 349.074219 380.171875 351.664062 376.960938 353.242188 C 370.546875 356.394531 360.332031 364.296875 355.527344 368.132812 L 339.0625 334.636719 L 331.007812 331.171875 L 350.410156 370.652344 C 351.171875 372.199219 352.597656 373.324219 354.28125 373.699219 C 354.695312 373.792969 355.113281 373.835938 355.527344 373.835938 C 356.808594 373.835938 358.066406 373.40625 359.085938 372.589844 C 363.203125 369.300781 373.4375 361.328125 379.476562 358.359375 C 382.207031 357.019531 386.765625 354.777344 390.097656 354.777344 Z M 390.097656 354.777344 " fill-opacity="1" fill-rule="nonzero"/><path fill="#ffffff" d="M 319.144531 294.105469 L 308.730469 272.910156 L 405.054688 225.574219 C 408.378906 229.707031 416.960938 240.628906 420.070312 246.953125 C 421.386719 249.632812 424.882812 256.746094 423.246094 259.566406 C 422.417969 260.996094 419.980469 261.433594 418.085938 261.550781 C 409.882812 262.0625 399.960938 263.527344 395.984375 270.378906 C 395.253906 271.636719 394.816406 273.03125 394.566406 274.519531 C 395.554688 274.3125 396.539062 274.054688 397.570312 274.054688 C 398.59375 274.054688 399.589844 274.210938 400.574219 274.417969 C 400.703125 274.03125 400.710938 273.589844 400.914062 273.238281 C 403.566406 268.675781 412.1875 267.632812 418.441406 267.242188 C 423.21875 266.949219 426.496094 265.324219 428.179688 262.421875 C 430.960938 257.628906 428.386719 250.945312 425.183594 244.4375 C 421.960938 237.878906 413.972656 227.5625 409.5 222 C 408.386719 220.617188 406.738281 219.871094 405.054688 219.871094 C 404.203125 219.871094 403.34375 220.0625 402.539062 220.457031 L 367.503906 237.675781 C 366.609375 236.203125 365.480469 234.863281 363.921875 233.882812 C 358.5625 230.527344 351.53125 232.15625 348.199219 237.484375 L 339.414062 251.480469 L 306.214844 267.796875 C 304.859375 268.460938 303.820312 269.640625 303.332031 271.074219 C 302.84375 272.503906 302.945312 274.070312 303.613281 275.425781 L 311.085938 290.640625 Z M 319.144531 294.105469 " fill-opacity="1" fill-rule="nonzero"/><path fill="#ffffff" d="M 240.460938 239.941406 C 238.480469 257.542969 251.140625 273.421875 268.742188 275.402344 C 286.34375 277.382812 302.21875 264.722656 304.199219 247.121094 C 306.183594 229.519531 293.523438 213.644531 275.917969 211.660156 C 258.320312 209.679688 242.445312 222.339844 240.460938 239.941406 Z M 240.460938 239.941406 " fill-opacity="1" fill-rule="nonzero"/><g clip-path="url(#bad1ae5fe7)"><path fill="#ffffff" d="M 344.699219 333.492188 C 346.144531 334.109375 347.675781 334.417969 349.203125 334.417969 C 351.527344 334.417969 353.839844 333.707031 355.796875 332.320312 L 404.171875 298.039062 C 409.3125 294.402344 410.523438 287.28125 406.882812 282.144531 C 403.242188 277.003906 396.125 275.792969 390.988281 279.433594 L 347.832031 310.011719 L 308.761719 293.207031 L 295.691406 287.585938 C 295.546875 287.523438 295.394531 287.546875 295.25 287.492188 L 295.214844 287.40625 L 242.316406 275.445312 C 237.554688 274.367188 232.613281 277.09375 231.320312 281.808594 C 231.3125 281.84375 231.300781 281.875 231.292969 281.910156 L 207.523438 371.863281 C 205.585938 376.257812 205.402344 381.410156 207.46875 386.164062 L 234.597656 448.480469 L 204.453125 513.679688 C 200.328125 522.613281 204.21875 533.199219 213.152344 537.332031 C 215.574219 538.449219 218.113281 538.980469 220.617188 538.980469 C 227.347656 538.980469 233.789062 535.144531 236.800781 528.632812 L 270.300781 456.175781 C 272.433594 451.558594 272.492188 446.25 270.460938 441.585938 L 258.390625 413.855469 L 293.519531 452.691406 L 295.46875 520.246094 C 295.746094 529.90625 303.667969 537.550781 313.269531 537.550781 C 313.445312 537.550781 313.617188 537.546875 313.792969 537.542969 C 323.628906 537.257812 331.375 529.054688 331.089844 519.21875 L 328.949219 445.097656 C 328.828125 440.859375 327.199219 436.800781 324.355469 433.660156 L 283.019531 387.960938 L 301.964844 316.261719 L 305.730469 316.730469 L 322.050781 323.75 Z M 344.699219 333.492188 " fill-opacity="1" fill-rule="nonzero"/></g><g mask="url(#8c7605be31)"><g transform="matrix(1, 0, 0, 1, 206, 163)"><g clip-path="url(#bc99bf50ae)"><g clip-path="url(#d307cf96bd)"><path fill="#ffffff" d="M 279.320312 396.480469 L 396.929688 396.480469 C 396.929688 343.019531 386.632812 291.144531 365.648438 242.4375 C 345.847656 195.3125 317.335938 152.941406 280.902344 116.507812 C 244.46875 80.078125 202.097656 51.566406 154.976562 31.765625 C 106.265625 10.777344 54.390625 0.480469 0.929688 0.480469 L 0.929688 118.09375 C 75.378906 118.09375 145.46875 147 197.742188 199.667969 C 250.410156 251.941406 279.320312 322.03125 279.320312 396.480469 Z M 279.320312 396.480469 " fill-opacity="1" fill-rule="nonzero"/></g></g></g></g></svg>